<svg width="37" height="46" viewBox="0 0 37 46" fill="none" xmlns="http://www.w3.org/2000/svg">
<path fill-rule="evenodd" clip-rule="evenodd" d="M31 3H6C4.34315 3 3 4.34315 3 6V40C3 41.6569 4.34315 43 6 43H31C32.6569 43 34 41.6569 34 40V6C34 4.34315 32.6569 3 31 3ZM6 0C2.68629 0 0 2.68629 0 6V40C0 43.3137 2.68629 46 6 46H31C34.3137 46 37 43.3137 37 40V6C37 2.68629 34.3137 0 31 0H6Z" fill="black"/>
<path d="M8.97803 39H6.84424C6.78239 39 6.75146 38.9691 6.75146 38.9072L6.78857 25.854C6.78857 25.8045 6.81331 25.7798 6.86279 25.7798H10.5181C11.6808 25.7798 12.5993 26.1354 13.2734 26.8467C13.9538 27.5517 14.2939 28.5135 14.2939 29.7319C14.2939 30.6225 14.1177 31.3987 13.7651 32.0605C13.4064 32.7161 12.9425 33.2233 12.3735 33.582C11.8045 33.9407 11.186 34.1201 10.5181 34.1201H9.0708V38.9072C9.0708 38.9691 9.03988 39 8.97803 39ZM10.5181 28.0342L9.0708 28.0527V31.8193H10.5181C10.9201 31.8193 11.2695 31.6276 11.5664 31.2441C11.8633 30.8545 12.0117 30.3504 12.0117 29.7319C12.0117 29.2371 11.8787 28.832 11.6128 28.5166C11.3468 28.195 10.9819 28.0342 10.5181 28.0342Z" fill="black"/>
<path d="M18.9326 38.9814L15.5278 39C15.466 39 15.4351 38.9691 15.4351 38.9072L15.4722 25.854C15.4722 25.8045 15.4969 25.7798 15.5464 25.7798L19.0996 25.7612C19.8047 25.7427 20.4417 25.9035 21.0107 26.2436C21.5859 26.5838 22.0436 27.0446 22.3838 27.626C22.7301 28.2011 22.9033 28.8382 22.9033 29.5371V34.9922C22.9033 35.722 22.7271 36.3899 22.3745 36.9961C22.0158 37.596 21.5396 38.0753 20.9458 38.4341C20.3521 38.7866 19.681 38.9691 18.9326 38.9814ZM19.0996 28.0342L17.7729 28.0527L17.7544 36.6621H18.9326C19.4027 36.6621 19.7985 36.4982 20.1201 36.1704C20.4417 35.8426 20.6025 35.4498 20.6025 34.9922V29.5185C20.6025 29.1165 20.4541 28.7671 20.1572 28.4702C19.8604 28.1671 19.5078 28.0218 19.0996 28.0342Z" fill="black"/>
<path d="M26.6235 39H24.4897C24.4279 39 24.397 38.9691 24.397 38.9072L24.4341 25.854C24.4341 25.8045 24.4588 25.7798 24.5083 25.7798H30.5942C30.6561 25.7798 30.687 25.8045 30.687 25.854V27.997C30.687 28.0465 30.6623 28.0713 30.6128 28.0713H26.7163V31.0215H30.6128C30.6623 31.0215 30.687 31.0524 30.687 31.1142L30.7056 33.2666C30.7056 33.3161 30.6746 33.3408 30.6128 33.3408H26.7163V38.9072C26.7163 38.9691 26.6854 39 26.6235 39Z" fill="black"/>
</svg>
