<svg width="47" height="47" viewBox="0 0 47 47" fill="none" xmlns="http://www.w3.org/2000/svg">
<path fill-rule="evenodd" clip-rule="evenodd" d="M41 22H6C4.34315 22 3 23.3431 3 25V41C3 42.6569 4.34315 44 6 44H41C42.6569 44 44 42.6569 44 41V25C44 23.3431 42.6569 22 41 22ZM6 19C2.68629 19 0 21.6863 0 25V41C0 44.3137 2.68629 47 6 47H41C44.3137 47 47 44.3137 47 41V25C47 21.6863 44.3137 19 41 19H6Z" fill="black"/>
<path d="M9 26C9 27.1046 8.10457 28 7 28C5.89543 28 5 27.1046 5 26C5 24.8954 5.89543 24 7 24C8.10457 24 9 24.8954 9 26Z" fill="black"/>
<path d="M15 26C15 27.1046 14.1046 28 13 28C11.8954 28 11 27.1046 11 26C11 24.8954 11.8954 24 13 24C14.1046 24 15 24.8954 15 26Z" fill="black"/>
<path fill-rule="evenodd" clip-rule="evenodd" d="M35 3H12V19H35V3ZM12 0C10.3431 0 9 1.34315 9 3V19C9 20.6569 10.3431 22 12 22H35C36.6569 22 38 20.6569 38 19V3C38 1.34315 36.6569 0 35 0H12Z" fill="black"/>
<path fill-rule="evenodd" clip-rule="evenodd" d="M9 39C9 38.1716 9.67157 37.5 10.5 37.5H35.5C36.3284 37.5 37 38.1716 37 39C37 39.8284 36.3284 40.5 35.5 40.5H10.5C9.67157 40.5 9 39.8284 9 39Z" fill="black"/>
</svg>
